HIERARCHY
ROOT Hips
{
	OFFSET 0.000000 89.005402 0.000000
	CHANNELS 6 Xposition Yposition Zposition Xrotation Yrotation Zrotation
	JOINT Spine
	{
		OFFSET 0.116900 10.681000 0.373400
		CHANNELS 3 Xrotation Yrotation Zrotation
		JOINT Spine1
		{
			OFFSET 0.000000 13.840401 0.053500
			CHANNELS 3 Xrotation Yrotation Zrotation
			JOINT Spine2
			{
				OFFSET 0.000000 14.712700 -0.366200
				CHANNELS 3 Xrotation Yrotation Zrotation
				JOINT Neck
				{
					OFFSET 0.000000 35.415497 -3.314200
					CHANNELS 3 Xrotation Yrotation Zrotation
					JOINT Head
					{
						OFFSET 0.000000 16.899200 1.218300
						CHANNELS 3 Xrotation Yrotation Zrotation
						JOINT HeadTop_End
						{
							OFFSET 0.000000 22.206207 2.192500
							CHANNELS 3 Xrotation Yrotation Zrotation
							End Site
							{
								OFFSET 0.000000 22.314178 0.000000
							}
						}
					}
				}
				JOINT LeftShoulder
				{
					OFFSET 12.896400 26.716293 -4.548400
					CHANNELS 3 Xrotation Yrotation Zrotation
					JOINT LeftArm
					{
						OFFSET 19.027000 -4.857010 -1.718400
						CHANNELS 3 Xrotation Yrotation Zrotation
						JOINT LeftForeArm
						{
							OFFSET 24.179897 0.000000 0.000000
							CHANNELS 3 Xrotation Yrotation Zrotation
							JOINT LeftHand
							{
								OFFSET 27.156403 0.000000 0.000000
								CHANNELS 3 Xrotation Yrotation Zrotation
								JOINT LeftHandIndex1
								{
									OFFSET 16.441200 0.000000 0.000000
									CHANNELS 3 Xrotation Yrotation Zrotation
									JOINT LeftHandIndex2
									{
										OFFSET 4.821899 0.000000 0.000000
										CHANNELS 3 Xrotation Yrotation Zrotation
										JOINT LeftHandIndex3
										{
											OFFSET 6.386497 0.000000 0.000000
											CHANNELS 3 Xrotation Yrotation Zrotation
											JOINT LeftHandIndex4
											{
												OFFSET 5.188988 0.000000 0.000000
												CHANNELS 3 Xrotation Yrotation Zrotation
												End Site
												{
													OFFSET -0.178703 5.185913 0.000177
												}
											}
										}
									}
								}
								JOINT LeftHandThumb1
								{
									OFFSET 6.534897 -5.032593 5.900300
									CHANNELS 3 Xrotation Yrotation Zrotation
									JOINT LeftHandThumb2
									{
										OFFSET 3.818176 -2.204422 2.204423
										CHANNELS 3 Xrotation Yrotation Zrotation
										JOINT LeftHandThumb3
										{
											OFFSET 3.252098 -1.877594 1.877601
											CHANNELS 3 Xrotation Yrotation Zrotation
											JOINT LeftHandThumb4
											{
												OFFSET 5.251778 -3.032120 3.032117
												CHANNELS 3 Xrotation Yrotation Zrotation
												End Site
												{
													OFFSET 0.000023 6.780014 0.000000
												}
											}
										}
									}
								}
							}
						}
					}
				}
				JOINT RightShoulder
				{
					OFFSET -12.896300 26.716293 -4.548400
					CHANNELS 3 Xrotation Yrotation Zrotation
					JOINT RightArm
					{
						OFFSET -19.027000 -4.857010 -1.718400
						CHANNELS 3 Xrotation Yrotation Zrotation
						JOINT RightForeArm
						{
							OFFSET -24.179897 0.000000 0.000000
							CHANNELS 3 Xrotation Yrotation Zrotation
							JOINT RightHand
							{
								OFFSET -27.156403 0.000000 0.000000
								CHANNELS 3 Xrotation Yrotation Zrotation
								JOINT RightHandThumb1
								{
									OFFSET -6.591202 -4.852203 5.988100
									CHANNELS 3 Xrotation Yrotation Zrotation
									JOINT RightHandThumb2
									{
										OFFSET -3.818176 -2.204422 2.204423
										CHANNELS 3 Xrotation Yrotation Zrotation
										JOINT RightHandThumb3
										{
											OFFSET -3.252098 -1.877594 1.877601
											CHANNELS 3 Xrotation Yrotation Zrotation
											JOINT RightHandThumb4
											{
												OFFSET -5.251778 -3.032120 3.032117
												CHANNELS 3 Xrotation Yrotation Zrotation
												End Site
												{
													OFFSET -0.000023 6.780014 0.000000
												}
											}
										}
									}
								}
								JOINT RightHandIndex1
								{
									OFFSET -16.029404 0.000000 0.000000
									CHANNELS 3 Xrotation Yrotation Zrotation
									JOINT RightHandIndex2
									{
										OFFSET -5.213303 0.000000 0.000000
										CHANNELS 3 Xrotation Yrotation Zrotation
										JOINT RightHandIndex3
										{
											OFFSET -6.386528 0.000000 0.000000
											CHANNELS 3 Xrotation Yrotation Zrotation
											JOINT RightHandIndex4
											{
												OFFSET -5.189026 0.000000 0.000000
												CHANNELS 3 Xrotation Yrotation Zrotation
												End Site
												{
													OFFSET 0.236702 5.183624 0.001972
												}
											}
										}
									}
								}
							}
						}
					}
				}
			}
		}
	}
	JOINT LeftUpLeg
	{
		OFFSET 14.073000 -7.904099 -1.463000
		CHANNELS 3 Xrotation Yrotation Zrotation
		JOINT LeftLeg
		{
			OFFSET -0.109806 -34.073280 4.093200
			CHANNELS 3 Xrotation Yrotation Zrotation
			JOINT LeftFoot
			{
				OFFSET 0.109806 -29.899420 -6.319000
				CHANNELS 3 Xrotation Yrotation Zrotation
				JOINT LeftToeBase
				{
					OFFSET 1.551100 -14.988700 20.535801
					CHANNELS 3 Xrotation Yrotation Zrotation
					JOINT LeftToe_End
					{
						OFFSET 0.221200 0.570800 13.248301
						CHANNELS 3 Xrotation Yrotation Zrotation
						End Site
						{
							OFFSET 0.000000 13.262435 0.000000
						}
					}
				}
			}
		}
	}
	JOINT RightUpLeg
	{
		OFFSET -13.839300 -7.904099 -1.463000
		CHANNELS 3 Xrotation Yrotation Zrotation
		JOINT RightLeg
		{
			OFFSET 0.109694 -34.073219 4.093300
			CHANNELS 3 Xrotation Yrotation Zrotation
			JOINT RightFoot
			{
				OFFSET -0.109694 -29.899384 -6.319200
				CHANNELS 3 Xrotation Yrotation Zrotation
				JOINT RightToeBase
				{
					OFFSET -1.551100 -14.988700 20.535801
					CHANNELS 3 Xrotation Yrotation Zrotation
					JOINT RightToe_End
					{
						OFFSET -0.221200 0.570900 13.248299
						CHANNELS 3 Xrotation Yrotation Zrotation
						End Site
						{
							OFFSET 0.000000 13.262440 0.000000
						}
					}
				}
			}
		}
	}
}
MOTION
Frames: 4
Frame Time: 0.033333
-3.077036 75.585098 0.591503 13.251283 10.332239 -7.912234 4.837786 4.917673 4.945705 4.674414 0.974290 10.527704 4.593610 1.040458 10.554723 -19.296845 -8.193153 -8.779066 9.989550 -21.285407 24.698854 -0.000003 0.000000 -0.000001 -0.898874 5.367488 9.135502 24.944536 -23.634662 -25.623622 -0.000017 -119.274296 -0.000010 30.306741 -10.909543 5.696341 -0.370393 -2.952604 -6.565702 0.055456 0.873993 -7.262251 -0.000004 0.000003 0.000010 -0.000001 -0.000002 0.000001 -1.540032 3.690188 6.142356 14.069707 14.805092 1.548666 9.278752 9.257252 1.812864 0.000000 0.000001 -0.000001 0.551397 0.933266 7.928601 31.772776 21.230383 -1.390206 -0.000010 65.369876 0.000009 34.161543 28.784989 -15.714269 -1.849257 -3.581788 -6.586135 4.637201 -8.634117 -0.225405 -1.273764 0.137294 -2.094865 0.000002 -0.000004 -0.000001 -0.010181 3.092185 0.377199 0.059188 -0.907199 7.465909 -0.000005 -0.000002 -0.000002 0.000003 -0.000005 0.000005 -32.059375 14.629177 -15.514618 46.065968 11.332915 2.797664 -29.015689 -4.343913 16.797447 -4.813007 0.000010 0.000008 -0.000000 0.000000 -0.000000 -20.691273 3.004524 -32.878164 26.656714 -10.743882 -5.452210 17.111929 -5.844350 29.248984 -13.536555 -0.033563 1.573904 -0.000000 0.000002 0.000001 
-3.207136 75.438950 -0.834530 12.158334 9.756543 -8.173157 4.833861 4.770436 4.698857 4.909053 0.983647 10.803977 4.828513 1.052709 10.831268 -19.551987 -7.387335 -8.504648 11.555557 -14.466066 20.561269 -0.000000 -0.000000 0.000001 -1.110763 4.833836 13.138680 22.875417 -31.039098 -31.204464 0.000014 -118.371276 0.000018 30.225694 -9.720920 6.984861 -0.342386 -3.020778 -6.028131 0.048574 0.818139 -6.795686 -0.000005 -0.000015 -0.000003 -0.000001 0.000004 -0.000003 -1.540047 3.690199 6.142353 14.069709 14.805092 1.548662 9.278751 9.257251 1.812865 -0.000001 0.000002 0.000000 0.531064 -1.072031 8.329796 35.365019 22.295404 -9.917148 -0.000010 66.890618 0.000006 33.123016 26.540182 -10.562018 -1.849256 -3.581785 -6.586134 4.637203 -8.634116 -0.225403 -1.273764 0.137292 -2.094868 -0.000001 -0.000001 -0.000000 -0.010176 3.092189 0.377200 0.086279 -1.094235 9.017191 0.000009 -0.000003 -0.000002 -0.000001 0.000002 -0.000002 -33.058457 14.949735 -15.072091 47.002418 11.224146 3.609039 -28.226250 -4.196398 16.867070 -4.146731 0.000001 0.000002 -0.000000 -0.000000 0.000000 -20.077092 3.850146 -32.991169 26.059409 -10.364884 -4.080787 15.693581 -4.388288 28.558290 -13.175121 -0.027542 1.433248 0.000000 -0.000000 -0.000000 
-3.160683 75.193008 -2.066042 11.044670 8.930531 -8.266551 4.849540 4.595735 4.465746 5.027100 0.978244 11.017902 4.947770 1.049892 11.044566 -19.424471 -6.881429 -7.862355 11.978186 -9.845202 16.868250 -0.000003 -0.000001 -0.000000 -1.116063 4.120434 15.605244 20.484330 -35.558696 -35.515020 -0.000040 -118.686940 -0.000040 29.219471 -8.782622 6.488927 -0.338831 -3.029331 -5.960597 0.047743 0.811134 -6.737098 -0.000006 -0.000004 0.000006 0.000000 -0.000002 -0.000001 -1.540037 3.690195 6.142361 14.069707 14.805089 1.548669 9.278750 9.257251 1.812864 -0.000000 -0.000001 0.000000 0.560444 -2.451698 9.242372 38.029967 22.359471 -15.542584 0.000028 67.379536 -0.000026 31.359072 25.744834 -7.434310 -1.849261 -3.581786 -6.586135 4.637196 -8.634136 -0.225398 -1.273765 0.137292 -2.094868 -0.000001 -0.000001 0.000002 -0.010181 3.092192 0.377201 0.126659 -1.323818 10.930851 0.000005 0.000000 -0.000003 -0.000001 -0.000002 0.000000 -33.622378 15.485159 -14.781310 47.720691 11.103256 4.079270 -27.763372 -3.902159 17.223944 -3.866658 0.000010 -0.000003 -0.000000 -0.000001 -0.000000 -20.572835 5.186303 -33.129348 26.310573 -10.313671 -3.414156 16.636594 -3.312615 28.019743 -13.758003 -0.012340 0.954271 0.000000 0.000001 -0.000001 
-2.792597 74.851288 -3.067481 9.944601 7.095140 -8.164633 4.997812 4.302238 4.407956 4.978435 0.935089 11.066377 4.904148 1.008954 11.090356 -18.758566 -6.617495 -6.514624 11.427620 -7.587422 14.019068 -0.000002 -0.000001 -0.000002 -0.976289 3.466277 15.951290 19.614299 -36.233853 -36.772058 -0.000012 -120.325858 -0.000005 27.908793 -7.999233 3.748938 -0.368364 -2.957633 -6.526187 0.054939 0.869891 -7.227944 -0.000000 0.000005 -0.000004 -0.000001 0.000001 -0.000001 -1.540041 3.690199 6.142354 14.069708 14.805089 1.548669 9.278751 9.257251 1.812866 -0.000003 -0.000001 -0.000001 0.647523 -2.454923 10.752274 38.293452 21.839120 -16.671641 -0.000042 66.531944 0.000050 28.426580 26.229501 -6.557449 -1.849257 -3.581786 -6.586132 4.637194 -8.634121 -0.225421 -1.273760 0.137293 -2.094868 -0.000001 0.000005 -0.000000 -0.010178 3.092189 0.377202 0.118549 -1.281075 10.573752 -0.000000 -0.000010 0.000007 0.000000 -0.000000 -0.000002 -33.876765 16.421201 -14.465970 48.261017 11.342364 3.979234 -27.723477 -3.422208 17.913761 -3.659391 0.000008 0.000002 0.000000 -0.000002 -0.000000 -22.766578 6.676959 -33.137609 27.180477 -10.497828 -3.240311 19.697202 -2.269033 26.873468 -14.742579 -0.001970 0.372382 -0.000000 0.000001 0.000000 
